# xmcd
#
# Track frame offsets: 
#        150
#        14022
#        24029
#        36962
#        45955
#        60720
#        71134
#        80333
#        92273
#        104315
#        116981
#        137758
#        148339
#        158628
#        168733
#        177869
#        186897
#        197660
#        207983
#        218199
#
# Disc length: 3024 seconds
#
# Revision: 0
# Processed by: cddbd v1.5.2PL0 Copyright (c) Steve Scherf et al.
# Submitted via: ExactAudioCopy v0.99pb5
#
DISCID=1d0bce14
DTITLE=Everly Brothers  - 100 Hits Legends - CD 5
DYEAR=1900
DGENRE=
TTITLE0=Blueberry Hill
TTITLE1=See See Rider
TTITLE2=Good Golly, Miss Molly
TTITLE3=Dont Ya Even Try
TTITLE4=Hi Heel Shakers
TTITLE5=Drop Out
TTITLE6=Somebody Help Me
TTITLE7=(You Got) The Power Of Love
TTITLE8=The Devils Child
TTITLE9=Bowling Green
TTITLE10=The House OF The Rising Sun
TTITLE11=Ill Never Get Over You
TTITLE12=This Is The Last Song I'm Ever Going To Sing
TTITLE13=Radio And Tv
TTITLE14=Follow Me
TTITLE15=It Only Cost A Dime
TTITLE16=Love Hurts
TTITLE17=And I'll Go
TTITLE18=Lonely Island
TTITLE19=(So It Was, So It Is) So It Always Will Be
EXTD=
EXTT0=
EXTT1=
EXTT2=
EXTT3=
EXTT4=
EXTT5=
EXTT6=
EXTT7=
EXTT8=
EXTT9=
EXTT10=
EXTT11=
EXTT12=
EXTT13=
EXTT14=
EXTT15=
EXTT16=
EXTT17=
EXTT18=
EXTT19=
PLAYORDER=
